<?xml version="1.0" standalone="no"?>
<!DOCTYPE svg PUBLIC "-//W3C//DTD SVG 20010904//EN"
 "http://www.w3.org/TR/2001/REC-SVG-20010904/DTD/svg10.dtd">
<svg version="1.0" xmlns="http://www.w3.org/2000/svg"
 width="283.000000pt" height="297.000000pt" viewBox="0 0 283.000000 297.000000"
 preserveAspectRatio="xMidYMid meet">
<metadata>
Created by potrace 1.10, written by Peter Selinger 2001-2011
</metadata>
<g transform="translate(0.000000,297.000000) scale(0.050000,-0.050000)"
fill="#1003e7" stroke="none">
<path d="M3915 5487 c-5 -9 -35 -122 -66 -250 l-56 -232 -142 48 c-139 48
-143 48 -298 17 -717 -145 -1141 -542 -1354 -1267 l-37 -126 89 86 c352 342
926 437 1382 228 l104 -47 -58 -227 c-31 -124 -55 -228 -52 -231 11 -10 1313
762 1313 779 0 47 -810 1247 -825 1222z m402 -1012 c120 -192 121 -195 77
-217 -24 -13 -100 -54 -167 -91 l-124 -69 8 116 c4 64 13 191 19 283 17 259
11 259 187 -22z"/>
<path d="M473 3087 c-184 -369 -332 -674 -329 -677 3 -2 105 25 226 61 293 88
282 90 299 -34 22 -166 53 -216 274 -427 462 -441 916 -571 1537 -440 238 50
238 48 66 108 -460 160 -795 576 -839 1041 l-12 138 167 51 c93 27 193 56 223
63 30 7 55 19 54 26 -1 11 -574 339 -1197 687 l-133 74 -336 -671z m604 375
c83 -55 137 -103 125 -111 -12 -7 -22 -2 -22 11 0 17 -11 14 -35 -7 -19 -16
-55 -36 -80 -44 -25 -8 -45 -23 -45 -34 0 -10 -8 -14 -18 -8 -10 6 -80 -17
-155 -52 -195 -90 -197 -89 -115 60 41 73 93 167 116 208 53 94 53 94 229 -23z"/>
<path d="M2833 3351 c-462 -124 -524 -836 -87 -1018 218 -91 519 -43 538 85 8
55 6 56 -53 40 -220 -64 -456 4 -545 157 -69 118 -78 367 -17 493 98 200 491
203 491 3 0 -58 0 -58 69 -31 74 28 79 268 6 287 -76 21 -300 12 -402 -16z"/>
<path d="M4112 3127 c112 -476 -147 -1118 -530 -1316 l-64 -33 -164 150 -164
150 -5 -752 c-3 -414 -1 -757 5 -762 5 -6 336 9 735 33 399 24 736 44 749 43
13 0 -63 84 -168 187 l-192 186 95 89 c53 48 103 93 111 98 56 37 180 589 180
803 0 391 -194 826 -507 1134 l-109 107 28 -117z m-728 -2017 c5 6 26 -8 46
-30 20 -22 47 -40 61 -40 13 0 39 -20 57 -45 19 -25 27 -31 19 -15 -15 28 149
-89 175 -126 7 -10 20 -18 30 -18 10 0 36 -13 58 -29 70 -49 -2 -66 -278 -67
l-257 0 12 93 c7 51 13 142 13 202 0 90 5 106 27 88 15 -13 31 -18 37 -13z"/>
</g>
</svg>
